solid ASCII
  facet normal 0.000000e+00 -1.000000e+00 0.000000e+00
    outer loop
      vertex   0.000000e+00 0.000000e+00 0.000000e+00
      vertex   1.000000e-02 0.000000e+00 0.000000e+00
      vertex   0.000000e+00 0.000000e+00 5.000000e-03
    endloop
  endfacet
  facet normal 0.000000e+00 -1.000000e+00 0.000000e+00
    outer loop
      vertex   0.000000e+00 0.000000e+00 5.000000e-03
      vertex   1.000000e-02 0.000000e+00 0.000000e+00
      vertex   1.000000e-02 0.000000e+00 5.000000e-03
    endloop
  endfacet
  facet normal -8.660254e-01 5.000000e-01 0.000000e+00
    outer loop
      vertex   5.000000e-03 8.660254e-03 0.000000e+00
      vertex   0.000000e+00 0.000000e+00 0.000000e+00
      vertex   5.000000e-03 8.660254e-03 5.000000e-03
    endloop
  endfacet
  facet normal -8.660254e-01 5.000000e-01 0.000000e+00
    outer loop
      vertex   5.000000e-03 8.660254e-03 5.000000e-03
      vertex   0.000000e+00 0.000000e+00 0.000000e+00
      vertex   0.000000e+00 0.000000e+00 5.000000e-03
    endloop
  endfacet
  facet normal 8.660254e-01 5.000000e-01 -0.000000e+00
    outer loop
      vertex   1.000000e-02 0.000000e+00 0.000000e+00
      vertex   5.000000e-03 8.660254e-03 0.000000e+00
      vertex   1.000000e-02 0.000000e+00 5.000000e-03
    endloop
  endfacet
  facet normal 8.660254e-01 5.000000e-01 0.000000e+00
    outer loop
      vertex   1.000000e-02 0.000000e+00 5.000000e-03
      vertex   5.000000e-03 8.660254e-03 0.000000e+00
      vertex   5.000000e-03 8.660254e-03 5.000000e-03
    endloop
  endfacet
  facet normal 0.000000e+00 0.000000e+00 1.000000e+00
    outer loop
      vertex   1.000000e-02 0.000000e+00 5.000000e-03
      vertex   5.000000e-03 8.660254e-03 5.000000e-03
      vertex   0.000000e+00 0.000000e+00 5.000000e-03
    endloop
  endfacet
  facet normal 0.000000e+00 -0.000000e+00 -1.000000e+00
    outer loop
      vertex   5.000000e-03 8.660254e-03 0.000000e+00
      vertex   1.000000e-02 0.000000e+00 0.000000e+00
      vertex   0.000000e+00 0.000000e+00 0.000000e+00
    endloop
  endfacet
endsolid
